<svg xmlns="http://www.w3.org/2000/svg" viewBox="0 0 128 128">
  <defs>
    <linearGradient id="cloud-a" x1="64" y1="10" x2="64" y2="118" gradientUnits="userSpaceOnUse">
      <stop offset="0" stop-color="#4fd1c5"/>
      <stop offset="1" stop-color="#38b2ac"/>
    </linearGradient>
  </defs>
  <path fill="url(#cloud-a)" d="M104 58c-.5 0-1 0-1.5.1C100.8 41.5 86.9 28 70 28c-13.4 0-24.9 8.2-29.8 19.8C28.2 49.2 18 60.4 18 74c0 15.5 12.5 28 28 28h58c13.3 0 24-10.7 24-24s-10.7-20-24-20z"/>
  <path fill="#fff" fill-opacity=".3" d="M70 28c-13.4 0-24.9 8.2-29.8 19.8C28.2 49.2 18 60.4 18 74c0 2.8.4 5.5 1.1 8 2.2-12.3 12.8-21.7 25.7-21.7.5 0 1 0 1.5.1C48.1 43.8 61.9 30.3 78.8 30.3c8.5 0 16.2 3.3 22 8.7C95.3 32.5 83.4 28 70 28z"/>
  <g fill="#fff" fill-opacity=".6">
    <rect x="44" y="85" width="40" height="4" rx="2"/>
    <rect x="54" y="75" width="20" height="4" rx="2"/>
  </g>
</svg>